<mxfile host="app.diagrams.net" modified="2020-10-30T07:27:01.686Z" agent="5.0 (Windows NT 10.0; Win64; x64) AppleWebKit/537.36 (KHTML, like Gecko) Chrome/86.0.4240.111 Safari/537.36" etag="PdnVqISZOD6FvxFEJJKV" version="13.8.7" type="github">
  <diagram id="l89t2ICg3-7QkBQEQtDJ" name="Page-1">
    <mxGraphModel dx="1038" dy="580" grid="1" gridSize="10" guides="1" tooltips="1" connect="1" arrows="1" fold="1" page="1" pageScale="1" pageWidth="850" pageHeight="1100" math="0" shadow="0">
      <root>
        <mxCell id="0" />
        <mxCell id="1" parent="0" />
        <mxCell id="6DLjvvtObRHWHkzcSkK2-5" value="goToClassInPerson is a String&lt;br&gt;feelingToday is a Number&lt;br&gt;comment: expecting feelingToday is a number 1 - 10&lt;br&gt;comment: scale of 1 - 10 and 10 is best&lt;br&gt;comment: check if feeling good enough to go to class&lt;br&gt;thresholdFeeling is a Number&lt;br&gt;stubbornessToday is a Number&lt;br&gt;comment: expecting a Number 1 - 10 and 10 is most stubborn&amp;nbsp;&lt;br&gt;thresholdStub is a Number&lt;br&gt;legal is a String&lt;br&gt;professorAlive is a String&amp;nbsp;&amp;nbsp;&lt;br&gt;howMuchSleep is a Number&lt;br&gt;thresholdTired is a Number&lt;br&gt;&lt;br&gt;goToClassInPerson = &quot;yes&quot;&lt;br&gt;thresholdFeeling = 5&lt;br&gt;thresholdStub = 6&lt;br&gt;thresholdTired = 7&amp;nbsp;&lt;br&gt;&lt;br&gt;input feelingToday&amp;nbsp;&lt;br&gt;comment: we should validate the above input&lt;br&gt;if feelingToday &amp;lt;= thresholdFeeling then goToClassInPerson = &quot;no&quot;&lt;br&gt;&lt;br&gt;input stubbornesstoday&lt;br&gt;if( stubbornessToday &amp;lt;= threshold )&lt;br&gt;&amp;nbsp; &amp;nbsp;goToClassInPerson = &quot;no&quot;&lt;br&gt;&lt;br&gt;input legal&lt;br&gt;if( legal == &quot;true&quot; ) goToClassInPerson = &quot;yes&quot;&lt;br&gt;else goToClassInPerson = &quot;no&quot;&lt;br&gt;&lt;br&gt;input professorAlive&lt;br&gt;if( professorAlive == &quot;true&quot; ) goToClassInPerson = &quot;yes&quot;&lt;br&gt;else goToClassInPerson = &quot;no&quot;&lt;br&gt;&lt;br&gt;input howMuchSeep&lt;br&gt;if( howMuchSleep &amp;lt;= thresholdTired )&lt;br&gt;&amp;nbsp; &amp;nbsp;goToClassInPerson = &quot;no&quot;&amp;nbsp;&lt;br&gt;&lt;br&gt;&lt;br&gt;&lt;br&gt;&lt;br&gt;&lt;br&gt;&amp;nbsp;" style="text;html=1;align=left;verticalAlign=middle;resizable=0;points=[];autosize=1;" vertex="1" parent="1">
          <mxGeometry x="580" y="110" width="370" height="600" as="geometry" />
        </mxCell>
        <mxCell id="6DLjvvtObRHWHkzcSkK2-8" value="whether to come to class in person&amp;nbsp;&lt;br&gt;&lt;br&gt;how I&#39;m feeling today&lt;br&gt;how stubborn person is&amp;nbsp;&lt;br&gt;whether in-person is legal&lt;br&gt;how much sleep&amp;nbsp;&lt;br&gt;how much gas in car&lt;br&gt;how close you live to campus&amp;nbsp;&lt;br&gt;weather conditions&amp;nbsp;&lt;br&gt;professor is still alive&lt;br&gt;&lt;br&gt;feeling is a string&lt;br&gt;&quot;good&quot;&lt;br&gt;&quot;ok&quot;&lt;br&gt;&quot;awesome&quot;&lt;br&gt;feeling is a number&lt;br&gt;1 - 10&lt;br&gt;&lt;br&gt;stubbornness is a string&amp;nbsp;&lt;br&gt;&quot;not at all&quot;&lt;br&gt;&quot;very&quot;&lt;br&gt;&quot;somewhat&quot;&lt;br&gt;comment: feeling represented by linear scale one to ten&lt;br&gt;comment: one-end is worst feeling, ten-end is best feeling&amp;nbsp;&lt;br&gt;comment: 4 is threshold for going to class&lt;br&gt;feeling is a number&lt;br&gt;is feeling&amp;nbsp; &amp;nbsp;&lt;br&gt;" style="text;html=1;align=left;verticalAlign=middle;resizable=0;points=[];autosize=1;" vertex="1" parent="1">
          <mxGeometry x="140" y="260" width="330" height="370" as="geometry" />
        </mxCell>
      </root>
    </mxGraphModel>
  </diagram>
</mxfile>
